HIERARCHY
ROOT hip
{
  OFFSET 0 0 0
  CHANNELS 6 Xposition Yposition Zposition Zrotation Yrotation Xrotation
  JOINT abdomen
  {
    OFFSET 0 20.6881 -0.73152
    CHANNELS 3 Zrotation Xrotation Yrotation
    JOINT chest
    {
      OFFSET 0 11.7043 -0.48768
      CHANNELS 3 Zrotation Xrotation Yrotation
      JOINT neck
      {
        OFFSET 0 22.1894 -2.19456
        CHANNELS 3 Zrotation Xrotation Yrotation
        JOINT head
        {
          OFFSET -0.24384 7.07133 1.2192
          CHANNELS 3 Zrotation Xrotation Yrotation
          JOINT leftEye
          {
            OFFSET 4.14528 8.04674 8.04672
            CHANNELS 3 Zrotation Xrotation Yrotation
            End Site
            {
              OFFSET 1 0 0
            }
          }
          JOINT rightEye
          {
            OFFSET -3.6576 8.04674 8.04672
            CHANNELS 3 Zrotation Xrotation Yrotation
            End Site
            {
              OFFSET 1 0 0
            }
          }
        }
      }
      JOINT rCollar
      {
        OFFSET -2.68224 19.2634 -4.8768
        CHANNELS 3 Zrotation Xrotation Yrotation
        JOINT rShldr
        {
          OFFSET -8.77824 -1.95073 1.46304
          CHANNELS 3 Zrotation Xrotation Yrotation
          JOINT rForeArm
          {
            OFFSET -28.1742 -1.7115 0.48768
            CHANNELS 3 Zrotation Xrotation Yrotation
            JOINT rHand
            {
              OFFSET -22.5879 0.773209 7.07136
              CHANNELS 3 Zrotation Xrotation Yrotation
              JOINT rThumb1
              {
                OFFSET -1.2192 -0.487915 3.41376
                CHANNELS 3 Zrotation Xrotation Yrotation
                JOINT rThumb2
                {
                  OFFSET -3.37035 -0.52449 3.41376
                  CHANNELS 3 Zrotation Xrotation Yrotation
                  End Site
                  {
                    OFFSET -1.78271 -1.18214 1.43049
                  }
                }
              }
              JOINT rIndex1
              {
                OFFSET -7.75947 0.938293 5.60832
                CHANNELS 3 Zrotation Xrotation Yrotation
                JOINT rIndex2
                {
                  OFFSET -2.54057 -0.884171 1.56538
                  CHANNELS 3 Zrotation Xrotation Yrotation
                  End Site
                  {
                    OFFSET -1.62519 -0.234802 1.16502
                  }
                }
              }
              JOINT rMid1
              {
                OFFSET -8.24714 1.18213 3.41376
                CHANNELS 3 Zrotation Xrotation Yrotation
                JOINT rMid2
                {
                  OFFSET -3.10165 -0.590103 1.0647
                  CHANNELS 3 Zrotation Xrotation Yrotation
                  End Site
                  {
                    OFFSET -2.48547 -0.328903 0.83742
                  }
                }
              }
              JOINT rRing1
              {
                OFFSET -8.82822 0.546677 1.51678
                CHANNELS 3 Zrotation Xrotation Yrotation
                JOINT rRing2
                {
                  OFFSET -2.60934 -0.819778 -0.0198488
                  CHANNELS 3 Zrotation Xrotation Yrotation
                  End Site
                  {
                    OFFSET -2.33842 -0.294052 0.168128
                  }
                }
              }
              JOINT rPinky1
              {
                OFFSET -8.27202 -0.0477905 -0.4584
                CHANNELS 3 Zrotation Xrotation Yrotation
                JOINT rPinky2
                {
                  OFFSET -1.82734 -0.647385 -0.700984
                  CHANNELS 3 Zrotation Xrotation Yrotation
                  End Site
                  {
                    OFFSET -1.69225 -0.51767 -0.607171
                  }
                }
              }
            }
          }
        }
      }
      JOINT lCollar
      {
        OFFSET 2.68224 19.2634 -4.8768
        CHANNELS 3 Zrotation Xrotation Yrotation
        JOINT lShldr
        {
          OFFSET 8.77824 -1.95073 1.46304
          CHANNELS 3 Zrotation Xrotation Yrotation
          JOINT lForeArm
          {
            OFFSET 28.1742 -1.7115 0.48768
            CHANNELS 3 Zrotation Xrotation Yrotation
            JOINT lHand
            {
              OFFSET 22.5879 0.773209 7.07136
              CHANNELS 3 Zrotation Xrotation Yrotation
              JOINT lThumb1
              {
                OFFSET 1.2192 -0.487915 3.41376
                CHANNELS 3 Zrotation Xrotation Yrotation
                JOINT lThumb2
                {
                  OFFSET 3.37035 -0.52449 3.41376
                  CHANNELS 3 Zrotation Xrotation Yrotation
                  End Site
                  {
                    OFFSET 1.78271 -1.18214 1.43049
                  }
                }
              }
              JOINT lIndex1
              {
                OFFSET 7.75947 0.938293 5.60832
                CHANNELS 3 Zrotation Xrotation Yrotation
                JOINT lIndex2
                {
                  OFFSET 2.54057 -0.884171 1.56538
                  CHANNELS 3 Zrotation Xrotation Yrotation
                  End Site
                  {
                    OFFSET 1.62519 -0.234802 1.16502
                  }
                }
              }
              JOINT lMid1
              {
                OFFSET 8.24714 1.18213 3.41376
                CHANNELS 3 Zrotation Xrotation Yrotation
                JOINT lMid2
                {
                  OFFSET 3.10165 -0.590103 1.0647
                  CHANNELS 3 Zrotation Xrotation Yrotation
                  End Site
                  {
                    OFFSET 2.48547 -0.328903 0.83742
                  }
                }
              }
              JOINT lRing1
              {
                OFFSET 8.82822 0.546677 1.51678
                CHANNELS 3 Zrotation Xrotation Yrotation
                JOINT lRing2
                {
                  OFFSET 2.60934 -0.819778 -0.0198488
                  CHANNELS 3 Zrotation Xrotation Yrotation
                  End Site
                  {
                    OFFSET 2.33842 -0.294052 0.168128
                  }
                }
              }
              JOINT lPinky1
              {
                OFFSET 8.27202 -0.0477905 -0.4584
                CHANNELS 3 Zrotation Xrotation Yrotation
                JOINT lPinky2
                {
                  OFFSET 1.82734 -0.647385 -0.700984
                  CHANNELS 3 Zrotation Xrotation Yrotation
                  End Site
                  {
                    OFFSET 1.69225 -0.51767 -0.607171
                  }
                }
              }
            }
          }
        }
      }
    }
  }
  JOINT rButtock
  {
    OFFSET -8.77824 4.35084 1.2192
    CHANNELS 3 Zrotation Xrotation Yrotation
    JOINT rThigh
    {
      OFFSET 0 -1.70687 -2.19456
      CHANNELS 3 Zrotation Xrotation Yrotation
      JOINT rShin
      {
        OFFSET 0 -36.8199 0.73152
        CHANNELS 3 Zrotation Xrotation Yrotation
        JOINT rFoot
        {
          OFFSET 0.73152 -45.1104 -5.12064
          CHANNELS 3 Zrotation Xrotation Yrotation
          End Site
          {
            OFFSET -1.1221 -3.69964 12.103
          }
        }
      }
    }
  }
  JOINT lButtock
  {
    OFFSET 8.77824 4.35084 1.2192
    CHANNELS 3 Zrotation Xrotation Yrotation
    JOINT lThigh
    {
      OFFSET 0 -1.70687 -2.19456
      CHANNELS 3 Zrotation Xrotation Yrotation
      JOINT lShin
      {
        OFFSET 0 -36.8199 0.73152
        CHANNELS 3 Zrotation Xrotation Yrotation
        JOINT lFoot
        {
          OFFSET -0.73152 -45.1104 -5.12064
          CHANNELS 3 Zrotation Xrotation Yrotation
          End Site
          {
            OFFSET 1.1221 -3.69964 12.103
          }
        }
      }
    }
  }
}
MOTION
Frames:	6
Frame Time:	0.00833333
19.4351 48.5667 53.33 1.3125 15.3359 30.0355 0.542961 -30.4331 8.54429 -6.24665 -6.31132 2.06989 21.7286 11.7074 16.4125 -26.5337 4.32189 32.0733 -0.0 0.0 0.0 -0.0 0.0 0.0 -2.62562e-14 6.67986e-14 9.85972e-14 89.2327 30.5128 -25.8306 -16.1657 -8.84208 30.0232 -0.171306 11.7139 1.66985 3.79714e-10 7.16299e-10 -5.55299e-10 6.50462e-10 1.25095e-09 -9.66954e-10 3.79716e-10 7.16302e-10 -5.55325e-10 7.73091 5.47488 0.417314 3.79712e-10 7.16301e-10 -5.55306e-10 2.90554 0.965183 0.102902 3.79718e-10 7.163e-10 -5.55307e-10 10.2786 0.731801 0.0259123 3.79703e-10 7.16301e-10 -5.55299e-10 2.22167 -0.733487 -0.20892 -2.62246e-14 6.67851e-14 9.85475e-14 -111.926 72.718 50.3074 24.0018 -19.1006 -49.6154 0.498879 -19.6619 2.87834 -4.57951e-10 -3.28702e-10 9.09273e-10 -8.07055e-10 -5.9636e-10 1.56909e-09 -4.57956e-10 -3.28701e-10 9.09289e-10 -7.73091 5.47488 -0.417314 -4.57952e-10 -3.28702e-10 9.09279e-10 -2.90554 0.965183 -0.102902 -4.57962e-10 -3.28702e-10 9.09282e-10 -10.2786 0.731801 -0.0259123 -4.57952e-10 -3.28704e-10 9.09279e-10 -2.22167 -0.733487 0.20892 -2.03217e-16 0.0 -3.88251e-19 -5.83838 -33.5263 -12.5942 -1.22686 62.431 1.73529 -3.22274 -15.1972 -18.1443 2.03217e-16 0.0 3.88251e-19 -20.5041 -52.1243 -15.4717 0.238607 30.6096 0.299309 2.56186 -1.81581 11.7723
19.4709 48.58 53.8081 1.204 15.7553 29.977 0.611725 -30.4515 8.48074 -6.14932 -6.3451 2.0584 21.6431 11.7272 16.3921 -26.4881 4.3583 32.0638 -0.0 0.0 0.0 -0.0 0.0 0.0 -3.49575e-14 -5.75996e-14 2.43767e-14 89.3301 30.2227 -26.2478 -16.2455 -8.91727 30.1928 -0.157693 11.2526 1.60229 -4.30595e-10 1.46345e-09 -4.35693e-10 -7.49323e-10 2.5334e-09 -7.51351e-10 -4.30593e-10 1.46345e-09 -4.35714e-10 7.73091 5.47488 0.417314 -4.30596e-10 1.46345e-09 -4.35697e-10 2.90554 0.965183 0.102902 -4.30592e-10 1.46345e-09 -4.35699e-10 10.2786 0.731801 0.0259123 -4.30607e-10 1.46345e-09 -4.35692e-10 2.22167 -0.733487 -0.20892 -3.49463e-14 -5.76083e-14 2.42972e-14 -111.804 72.5616 50.031 23.9595 -19.0214 -49.4834 0.50522 -19.7825 2.89745 7.81176e-10 1.24437e-09 1.22234e-09 1.32477e-09 2.11831e-09 2.1283e-09 7.81171e-10 1.24437e-09 1.22236e-09 -7.73091 5.47488 -0.417314 7.81173e-10 1.24437e-09 1.22235e-09 -2.90554 0.965183 -0.102902 7.81165e-10 1.24437e-09 1.22235e-09 -10.2786 0.731801 -0.0259123 7.81174e-10 1.24437e-09 1.22235e-09 -2.22167 -0.733487 0.20892 -2.03217e-16 0.0 -3.88251e-19 -6.02291 -34.3917 -12.6544 -1.25038 62.7736 1.77081 -3.28919 -15.3356 -18.0375 2.03217e-16 0.0 3.88251e-19 -20.2751 -51.8808 -15.4101 0.236876 30.8435 0.253896 2.57734 -2.19905 11.6595
19.5063 48.5699 54.2925 1.1016 16.1376 29.9074 0.662233 -30.4745 8.40894 -6.0328 -6.37498 2.0477 21.5534 11.7298 16.3743 -26.4595 4.42924 32.065 -0.0 0.0 0.0 -0.0 0.0 0.0 -3.46621e-14 -2.73975e-13 -1.18799e-13 89.4105 29.9805 -26.6294 -16.3206 -8.98848 30.3524 -0.144127 10.773 1.53226 -1.97939e-09 2.7338e-09 -2.80722e-10 -3.42571e-09 4.71034e-09 -4.65516e-10 -1.97939e-09 2.7338e-09 -2.80736e-10 7.73091 5.47488 0.417314 -1.97939e-09 2.7338e-09 -2.80721e-10 2.90554 0.965183 0.102902 -1.97939e-09 2.7338e-09 -2.80727e-10 10.2786 0.731801 0.0259123 -1.97941e-09 2.7338e-09 -2.8072e-10 2.22167 -0.733487 -0.20892 -3.46912e-14 -2.73975e-13 -1.18938e-13 -111.668 72.3506 49.7306 23.9304 -18.9675 -49.3922 0.521391 -20.0836 2.94534 2.80745e-09 3.85373e-09 1.66824e-09 4.81248e-09 6.62429e-09 2.92767e-09 2.80745e-09 3.85374e-09 1.66826e-09 -7.73091 5.47488 -0.417314 2.80745e-09 3.85373e-09 1.66824e-09 -2.90554 0.965183 -0.102902 2.80744e-09 3.85374e-09 1.66825e-09 -10.2786 0.731801 -0.0259123 2.80745e-09 3.85374e-09 1.66825e-09 -2.22167 -0.733487 0.20892 -2.03217e-16 0.0 -3.88251e-19 -6.20295 -35.3025 -12.6593 -1.26638 63.0177 1.79926 -3.36388 -15.4699 -17.9111 2.03217e-16 0.0 3.88251e-19 -20.0523 -51.6547 -15.3749 0.235365 31.1032 0.204694 2.59565 -2.6087 11.5782
19.5453 48.5527 54.788 1.0195 16.5073 29.8663 0.688776 -30.5052 8.33751 -5.91115 -6.39983 2.0398 21.4705 11.7276 16.3555 -26.4434 4.51099 32.0662 -0.0 0.0 0.0 -0.0 0.0 0.0 -2.43874e-14 -4.86947e-13 -2.82051e-13 89.4893 29.7657 -26.9798 -16.3911 -9.05574 30.5026 -0.132378 10.3302 1.46786 -3.43794e-09 3.98085e-09 -2.07285e-10 -5.94655e-09 6.84781e-09 -3.21381e-10 -3.43794e-09 3.98085e-09 -2.0729e-10 7.73091 5.47488 0.417314 -3.43794e-09 3.98084e-09 -2.07278e-10 2.90554 0.965183 0.102902 -3.43794e-09 3.98085e-09 -2.07288e-10 10.2786 0.731801 0.0259123 -3.43795e-09 3.98085e-09 -2.07281e-10 2.22167 -0.733487 -0.20892 -2.44617e-14 -4.86937e-13 -2.82256e-13 -111.549 72.1233 49.4498 23.9047 -18.9201 -49.3106 0.540071 -20.4198 2.99911 4.59026e-09 6.16117e-09 2.14386e-09 7.87974e-09 1.06068e-08 3.77463e-09 4.59026e-09 6.16117e-09 2.14388e-09 -7.73091 5.47488 -0.417314 4.59025e-09 6.16116e-09 2.14386e-09 -2.90554 0.965183 -0.102902 4.59025e-09 6.16117e-09 2.14386e-09 -10.2786 0.731801 -0.0259123 4.59026e-09 6.16117e-09 2.14386e-09 -2.22167 -0.733487 0.20892 -2.03217e-16 0.0 -3.88251e-19 -6.3984 -36.2558 -12.6218 -1.27579 63.1829 1.82332 -3.44567 -15.5966 -17.795 2.03217e-16 0.0 3.88251e-19 -19.8446 -51.4383 -15.3576 0.23398 31.3786 0.153349 2.61553 -3.03831 11.514
19.5928 48.5202 55.2859 0.9833 16.836 29.8314 0.685647 -30.5472 8.27511 -5.79839 -6.4185 2.03674 21.4054 11.7328 16.3324 -26.435 4.57986 32.0567 -0.0 0.0 0.0 -0.0 0.0 0.0 -3.15078e-15 -6.01134e-13 -4.16504e-13 89.581 29.5577 -27.303 -16.4572 -9.11906 30.644 -0.123727 9.9796 1.41704 -3.9775e-09 4.65809e-09 -3.32279e-10 -6.87968e-09 8.01183e-09 -5.3088e-10 -3.97749e-09 4.65808e-09 -3.32279e-10 7.73091 5.47488 0.417314 -3.97749e-09 4.65808e-09 -3.32269e-10 2.90554 0.965183 0.102902 -3.9775e-09 4.65808e-09 -3.3228e-10 10.2786 0.731801 0.0259123 -3.97751e-09 4.65809e-09 -3.32273e-10 2.22167 -0.733487 -0.20892 -3.26034e-15 -6.01116e-13 -4.16752e-13 -111.479 71.918 49.2273 23.8722 -18.8604 -49.2078 0.552987 -20.6453 3.03538 5.09899e-09 6.82844e-09 2.54609e-09 8.75019e-09 1.17513e-08 4.47665e-09 5.09899e-09 6.82844e-09 2.54611e-09 -7.73091 5.47488 -0.417314 5.09898e-09 6.82844e-09 2.54608e-09 -2.90554 0.965183 -0.102902 5.09898e-09 6.82845e-09 2.54609e-09 -10.2786 0.731801 -0.0259123 5.09899e-09 6.82845e-09 2.54609e-09 -2.22167 -0.733487 0.20892 -2.03217e-16 0.0 -3.88251e-19 -6.62995 -37.2479 -12.5551 -1.27978 63.2885 1.84586 -3.53373 -15.7123 -17.7191 2.03217e-16 0.0 3.88251e-19 -19.6607 -51.2234 -15.3501 0.232553 31.6594 0.101543 2.63531 -3.48153 11.4525
19.6372 48.4936 55.7873 0.928 17.1919 29.8106 0.644797 -30.6057 8.22447 -5.69435 -6.42899 2.04007 21.3646 11.747 16.3033 -26.4423 4.63251 32.0329 -0.0 0.0 0.0 -0.0 0.0 0.0 4.13837e-14 -5.68138e-13 -5.27062e-13 89.6889 29.3562 -27.6005 -16.5202 -9.1796 30.7787 -0.118034 9.73987 1.38237 -3.08398e-09 4.50608e-09 -8.29795e-10 -5.3373e-09 7.76059e-09 -1.40092e-09 -3.08397e-09 4.50607e-09 -8.29793e-10 7.73091 5.47488 0.417314 -3.08398e-09 4.50607e-09 -8.29786e-10 2.90554 0.965183 0.102902 -3.08398e-09 4.50608e-09 -8.29794e-10 10.2786 0.731801 0.0259123 -3.08399e-09 4.50608e-09 -8.29786e-10 2.22167 -0.733487 -0.20892 4.12466e-14 -5.68116e-13 -5.2733e-13 -111.479 71.7447 49.0842 23.8265 -18.7769 -49.0646 0.556274 -20.7014 3.04444 3.52051e-09 4.82574e-09 2.8972e-09 6.02059e-09 8.27365e-09 5.0605e-09 3.5205e-09 4.82574e-09 2.89721e-09 -7.73091 5.47488 -0.417314 3.5205e-09 4.82573e-09 2.89719e-09 -2.90554 0.965183 -0.102902 3.5205e-09 4.82574e-09 2.8972e-09 -10.2786 0.731801 -0.0259123 3.52051e-09 4.82574e-09 2.8972e-09 -2.22167 -0.733487 0.20892 -2.03217e-16 0.0 -3.88251e-19 -6.9038 -38.2968 -12.4527 -1.27782 63.3361 1.86743 -3.63336 -15.8264 -17.693 2.03217e-16 0.0 3.88251e-19 -19.5111 -51.0166 -15.3622 0.231069 31.9543 0.0486674 2.65571 -3.94279 11.4034
